<svg width="673" height="695" viewBox="0 0 673 695" fill="none" xmlns="http://www.w3.org/2000/svg">
<path d="M27.4067 158.285L317.073 11.5606C331.405 4.30111 348.352 4.37049 362.624 11.747L645.958 158.19C662.568 166.775 673 183.91 673 202.608V645C673 672.614 650.614 695 623 695H50C22.3858 695 0 672.614 0 645V202.889C0 184.044 10.5955 166.8 27.4067 158.285Z" fill="#FFFDFA"/>
<path d="M352.859 158.499C332.72 147.898 313.936 143.992 301.933 150.347C297.133 152.889 282.796 158.87 277.202 173.72C269.927 193.032 274.266 218.252 274.266 218.252C274.266 218.252 281.845 251.104 291.583 270.875C300.001 287.967 302.564 305.832 320.315 312.711C346.285 322.773 364.705 313.705 387.592 298.148C400.699 289.239 398.969 289.809 405.8 275.494C418.128 249.659 408.335 226.444 393.643 201.654C381.825 181.714 373.361 169.291 352.859 158.499Z" fill="#C6DDB0" fill-opacity="0.47"/>
<path d="M196.139 206.093C182.993 206.082 175.21 209.521 164.589 216.904C149.246 227.568 145.702 255.165 145.702 255.165L144.859 296.973C144.859 296.973 150.558 350.475 182.61 367.077C200.355 376.268 209.518 387.815 229.082 385.104C249.499 382.274 263.978 375.961 274.816 358.837C285.887 341.342 288.077 330.988 284.443 310.341C282.951 301.865 273.662 263.425 253.684 241.517C235.942 222.062 217.697 206.109 196.139 206.093Z" fill="#C6DDB0" fill-opacity="0.47"/>
<path d="M147.949 384.834C132.505 386.95 123.186 391.149 113.72 403.833C102.331 419.094 102.381 430.898 108.732 448.538C113.721 462.395 117.105 483.272 130.748 500.618C144.378 517.947 153.274 528.893 175.411 528.114C192.158 527.524 200.702 524.361 213.308 512.917C226.184 501.228 231.653 490.699 234.523 473.576C238.952 447.148 231.736 425.627 209.411 411.883C190.892 400.483 163.393 382.719 147.949 384.834Z" fill="#C6DDB0" fill-opacity="0.47"/>
<path d="M539.439 227.078C533.013 220.038 519.943 199.3 498.718 195.841C486.098 193.785 480.746 195.984 469.868 202.752C458.99 209.519 450.101 219.878 448.889 226.842C447.676 233.805 431.38 269.54 436.077 297.593C439.156 315.978 443.834 323.546 456.014 337.621C474.6 359.098 495.131 363.962 523.357 360.575C547.062 357.729 563.335 346.198 570.792 323.474C574.694 311.582 561.082 274.324 561.082 274.324C561.082 274.324 545.866 234.119 539.439 227.078Z" fill="#C6DDB0" fill-opacity="0.47"/>
<path d="M412.307 355.079C387.295 344.246 377.734 331.872 350.671 335.655C327.914 338.835 310.343 349.344 293.937 365.548C272.388 386.831 274.789 413.199 269.275 442.966C264.656 467.902 254.097 489.546 247.432 495.881C232.657 509.924 232.197 511.552 227.458 528.311L227.451 528.338C224.106 540.168 227.324 553.84 237.599 571.625C248.328 590.195 257.687 603.93 278.095 610.446C295.916 616.135 307.196 619.041 316.092 616.093C337.279 609.073 357.734 603.817 367.78 578.748C373.845 563.609 381.2 552.105 384.645 546.509C390.403 537.155 408.172 522.389 419.022 520.938C436.485 518.604 441.087 517.194 463.939 514.568C488.843 511.707 500.883 508.55 522.24 495.293C545.756 480.696 554.006 469.83 556.423 442.257C557.88 425.633 556.623 414.537 550.456 404.63C539.663 387.293 527.145 378.566 506.828 380.859C491.999 382.532 486.29 382.407 468.697 380.535C444.838 377.995 434.3 364.605 412.307 355.079Z" fill="#C6DDB0" fill-opacity="0.47"/>
</svg>
