<svg width="673" height="695" viewBox="0 0 673 695" fill="none" xmlns="http://www.w3.org/2000/svg">
<path d="M645.593 536.715L355.927 683.439C341.595 690.699 324.648 690.629 310.376 683.253L27.0424 536.81C10.4322 528.225 1.60779e-05 511.09 1.77125e-05 492.392L5.63877e-05 49.9999C5.88018e-05 22.3857 22.3858 -5.68785e-05 50.0001 -5.44644e-05L623 -4.37114e-06C650.614 -1.95703e-06 673 22.3858 673 50L673 492.111C673 510.956 662.405 528.2 645.593 536.715Z" fill="#FFFDFA"/>
<path d="M397.567 529.353C397.305 522.105 395.4 516.303 391.728 514.014C390.259 513.098 386.318 510.106 381.308 510.944C374.792 512.033 368.485 517.268 368.485 517.268C368.485 517.268 360.575 524.619 356.638 530.47C353.235 535.528 348.686 539.096 349.602 545.089C350.941 553.857 356.388 557.48 364.345 561.294C368.902 563.479 368.469 563.093 373.527 562.682C382.657 561.94 387.54 555.523 392.082 547.504C395.734 541.053 397.835 536.73 397.567 529.353Z" fill="#C6DDB0" fill-opacity="0.47"/>
<path d="M359.43 493.793C357.341 490.169 355.149 488.575 351.411 486.831C346.011 484.312 337.79 487.756 337.79 487.756L326.056 494.221C326.056 494.221 312.117 504.362 312.61 515.854C312.883 522.216 311.136 526.59 315.001 531.547C319.034 536.72 323.089 539.698 329.565 539.941C336.181 540.189 339.402 539.134 344.552 534.825C346.667 533.056 355.855 524.338 358.755 515.324C361.331 507.319 362.855 499.736 359.43 493.793Z" fill="#C6DDB0" fill-opacity="0.47"/>
<path d="M302.168 509.148C299.125 505.231 296.477 503.336 291.452 502.76C285.405 502.066 282.138 503.971 278.254 508.546C275.203 512.141 269.948 516.418 267.306 522.956C264.666 529.488 263.044 533.692 266.782 539.668C269.61 544.188 271.847 546.035 277.028 547.676C282.319 549.351 286.111 549.171 291.318 547.219C299.356 544.206 304.179 538.77 304.441 530.417C304.658 523.487 305.212 513.064 302.168 509.148Z" fill="#C6DDB0" fill-opacity="0.47"/>
<path d="M408.222 591.75C409.153 588.852 412.828 581.928 410.411 575.526C408.974 571.719 407.512 570.596 403.904 568.683C400.295 566.77 396.007 565.98 393.882 566.761C391.757 567.543 379.249 568.777 372.212 574.565C367.601 578.359 366.245 580.86 364.278 586.471C361.275 595.033 363.192 601.47 368.622 608.704C373.183 614.78 378.971 617.417 386.463 615.832C390.383 615.002 398.556 605.283 398.556 605.283C398.556 605.283 407.29 594.649 408.222 591.75Z" fill="#C6DDB0" fill-opacity="0.47"/>
<path d="M352.481 577.225C351.508 568.597 353.42 563.98 348.065 557.129C343.562 551.368 337.851 548.21 330.745 546.285C321.411 543.757 314.477 548.642 305.341 551.891C297.687 554.613 290.001 555.171 287.183 554.349C280.936 552.528 280.411 552.662 275.007 554.041L274.999 554.043C271.184 555.016 267.903 558.093 264.603 563.774C261.157 569.705 258.835 574.484 260.274 581.151C261.53 586.973 262.518 590.547 264.751 592.526C270.07 597.239 274.782 602.034 283.336 600.786C288.502 600.032 292.864 600.216 294.965 600.269C298.476 600.357 305.4 602.887 307.529 605.645C310.954 610.083 312.078 611.125 316.442 617.001C321.198 623.405 323.989 626.217 331.065 629.978C338.856 634.12 343.184 634.652 351.219 630.901C356.063 628.639 358.942 626.515 360.71 623.229C363.803 617.478 364.233 612.631 360.365 607.399C357.542 603.581 356.668 601.988 354.389 596.841C351.298 589.86 353.336 584.811 352.481 577.225Z" fill="#C6DDB0" fill-opacity="0.47"/>
</svg>
