<svg width="805" height="781" viewBox="0 0 805 781" fill="none" xmlns="http://www.w3.org/2000/svg">
<path d="M28.5151 179.902L384.859 10.3281C398.576 3.80024 414.518 3.86305 428.184 10.4988L776.84 179.797C794.065 188.161 805 205.627 805 224.775V731C805 758.614 782.614 781 755 781H50C22.3858 781 0 758.614 0 731V225.05C0 205.76 11.0966 188.191 28.5151 179.902Z" fill="#FFFDFA"/>
<path d="M414.34 218.546C394.201 207.945 375.417 204.038 363.414 210.393C358.613 212.936 344.277 218.916 338.683 233.767C331.408 253.078 335.747 278.298 335.747 278.298C335.747 278.298 343.326 311.15 353.064 330.922C361.482 348.013 364.045 365.879 381.796 372.757C407.766 382.819 426.186 373.751 449.073 358.195C462.18 349.285 460.45 349.856 467.281 335.54C479.609 309.705 469.816 286.491 455.124 261.7C443.306 241.76 434.842 229.337 414.34 218.546Z" fill="#C6DDB0" fill-opacity="0.47"/>
<path d="M257.621 266.139C244.475 266.129 236.691 269.568 226.07 276.95C210.728 287.615 207.183 315.212 207.183 315.212L206.341 357.019C206.341 357.019 212.04 410.521 244.092 427.123C261.836 436.314 270.999 447.861 290.564 445.15C310.981 442.321 325.46 436.008 336.297 418.883C347.369 401.388 349.559 391.035 345.925 370.388C344.433 361.911 335.143 323.471 315.165 301.564C297.424 282.109 279.179 266.156 257.621 266.139Z" fill="#C6DDB0" fill-opacity="0.47"/>
<path d="M209.43 444.881C193.987 446.996 184.668 451.195 175.202 463.879C163.813 479.14 163.863 490.945 170.213 508.584C175.202 522.441 178.586 543.318 192.23 560.665C205.859 577.993 214.755 588.939 236.892 588.16C253.64 587.571 262.183 584.407 274.789 572.964C287.666 561.275 293.135 550.745 296.004 533.623C300.433 507.194 293.217 485.673 270.892 471.93C252.373 460.529 224.874 442.765 209.43 444.881Z" fill="#C6DDB0" fill-opacity="0.47"/>
<path d="M600.92 287.125C594.494 280.084 581.424 259.346 560.199 255.887C547.579 253.831 542.227 256.03 531.349 262.798C520.471 269.566 511.582 279.925 510.37 286.888C509.157 293.852 492.861 329.586 497.558 357.639C500.637 376.024 505.315 383.592 517.495 397.668C536.081 419.144 556.612 424.009 584.838 420.621C608.542 417.776 624.816 406.244 632.273 383.521C636.175 371.628 622.563 334.371 622.563 334.371C622.563 334.371 607.346 294.165 600.92 287.125Z" fill="#C6DDB0" fill-opacity="0.47"/>
<path d="M473.788 415.126C448.776 404.292 439.215 391.919 412.152 395.701C389.395 398.882 371.824 409.391 355.418 425.594C333.869 446.878 336.27 473.245 330.756 503.012C326.137 527.948 315.578 549.593 308.913 555.928C294.138 569.97 293.678 571.598 288.939 588.358L288.932 588.384C285.587 600.215 288.805 613.886 299.08 631.671C309.809 650.242 319.168 663.977 339.576 670.492C357.397 676.181 368.677 679.087 377.573 676.14C398.76 669.12 419.215 663.864 429.261 638.794C435.326 623.656 442.681 612.151 446.126 606.556C451.884 597.202 469.653 582.435 480.502 580.985C497.966 578.65 502.568 577.24 525.42 574.615C550.324 571.754 562.364 568.596 583.721 555.34C607.237 540.743 615.487 529.877 617.904 502.304C619.361 485.68 618.104 474.583 611.937 464.677C601.144 447.34 588.626 438.612 568.309 440.905C553.48 442.578 547.771 442.453 530.178 440.581C506.319 438.042 495.781 424.652 473.788 415.126Z" fill="#C6DDB0" fill-opacity="0.47"/>
</svg>
