<svg width="805" height="781" viewBox="0 0 805 781" fill="none" xmlns="http://www.w3.org/2000/svg">
<path d="M28.5151 179.902L384.859 10.3281C398.576 3.80024 414.518 3.86305 428.184 10.4988L776.84 179.797C794.065 188.161 805 205.627 805 224.775V731C805 758.614 782.614 781 755 781H50C22.3858 781 0 758.614 0 731V225.05C0 205.76 11.0966 188.191 28.5151 179.902Z" fill="#FFFDFA"/>
<path d="M471.115 104.983C470.221 97.7861 467.818 92.1724 463.959 90.2124C462.416 89.4284 458.23 86.791 453.311 88.0624C446.916 89.7157 441.089 95.4815 441.089 95.4815C441.089 95.4815 433.851 103.494 430.439 109.666C427.49 115.001 423.269 118.953 424.704 124.843C426.803 133.461 432.545 136.595 440.805 139.701C445.535 141.479 445.07 141.133 450.073 140.282C459.103 138.747 463.408 131.929 467.233 123.543C470.309 116.799 472.024 112.31 471.115 104.983Z" fill="#C6DDB0" fill-opacity="0.47"/>
<path d="M430.021 72.8853C427.624 69.4571 425.301 68.0606 421.425 66.6494C415.826 64.6107 407.937 68.7589 407.937 68.7589L396.811 76.2229C396.811 76.2229 383.81 87.5411 385.303 98.9457C386.13 105.26 384.772 109.77 389.054 114.37C393.523 119.172 397.822 121.785 404.295 121.462C410.907 121.132 414.024 119.8 418.779 115.059C420.731 113.112 429.124 103.626 431.227 94.3932C433.094 86.1938 433.951 78.5068 430.021 72.8853Z" fill="#C6DDB0" fill-opacity="0.47"/>
<path d="M374.317 93.1759C370.943 89.5397 368.14 87.8827 363.084 87.7467C357 87.5831 353.911 89.7657 350.441 94.6626C347.715 98.5096 342.854 103.228 340.792 109.972C338.731 116.709 337.482 121.039 341.727 126.666C344.939 130.922 347.328 132.567 352.632 133.75C358.05 134.957 361.811 134.447 366.829 132.048C374.573 128.346 378.904 122.51 378.436 114.165C378.048 107.244 377.691 96.8121 374.317 93.1759Z" fill="#C6DDB0" fill-opacity="0.47"/>
<path d="M487.17 166.214C487.845 163.245 490.902 156.027 487.936 149.86C486.172 146.193 484.618 145.203 480.857 143.611C477.095 142.02 472.754 141.607 470.706 142.571C468.657 143.535 456.304 145.855 449.8 152.235C445.537 156.416 444.404 159.026 442.933 164.788C440.689 173.579 443.16 179.823 449.201 186.557C454.274 192.212 460.27 194.334 467.595 192.101C471.428 190.933 478.721 180.538 478.721 180.538C478.721 180.538 486.495 169.183 487.17 166.214Z" fill="#C6DDB0" fill-opacity="0.47"/>
<path d="M430.375 156.605C428.653 148.095 430.155 143.329 424.223 136.971C419.235 131.625 413.27 128.977 406.023 127.679C396.505 125.975 390.023 131.446 381.205 135.48C373.818 138.859 366.21 140.085 363.331 139.512C356.949 138.242 356.438 138.421 351.175 140.267L351.167 140.269C347.451 141.572 344.451 144.923 341.659 150.87C338.743 157.079 336.847 162.043 338.862 168.559C340.621 174.249 341.917 177.723 344.315 179.5C350.024 183.731 355.137 188.097 363.549 186.107C368.629 184.906 372.991 184.708 375.088 184.578C378.594 184.359 385.712 186.276 388.073 188.837C391.873 192.96 393.083 193.9 397.943 199.373C403.239 205.338 406.265 207.895 413.642 211.025C421.765 214.472 426.122 214.625 433.8 210.187C438.428 207.512 441.111 205.145 442.585 201.717C445.165 195.717 445.171 190.851 440.861 185.977C437.715 182.42 436.706 180.909 433.987 175.98C430.298 169.295 431.889 164.088 430.375 156.605Z" fill="#C6DDB0" fill-opacity="0.47"/>
</svg>
