<svg width="1610" height="781" viewBox="0 0 1610 781" fill="none" xmlns="http://www.w3.org/2000/svg">
<path d="M28.5151 179.902L384.859 10.3281C398.576 3.80024 414.518 3.86305 428.184 10.4988L776.84 179.797C794.065 188.161 805 205.627 805 224.775V731C805 758.614 782.614 781 755 781H50C22.3858 781 0 758.614 0 731V225.05C0 205.76 11.0966 188.191 28.5151 179.902Z" fill="#FFFDFA"/>
<path d="M414.34 218.546C394.201 207.945 375.417 204.038 363.414 210.393C358.613 212.936 344.277 218.916 338.683 233.767C331.408 253.078 335.747 278.298 335.747 278.298C335.747 278.298 343.326 311.15 353.064 330.922C361.482 348.013 364.045 365.879 381.796 372.757C407.766 382.819 426.186 373.751 449.073 358.195C462.18 349.285 460.45 349.856 467.281 335.54C479.609 309.705 469.816 286.491 455.124 261.7C443.306 241.76 434.842 229.337 414.34 218.546Z" fill="#C6DDB0" fill-opacity="0.47"/>
<path d="M257.621 266.139C244.475 266.129 236.691 269.568 226.07 276.95C210.728 287.615 207.183 315.212 207.183 315.212L206.341 357.019C206.341 357.019 212.04 410.521 244.092 427.123C261.836 436.314 270.999 447.861 290.564 445.15C310.981 442.321 325.46 436.008 336.297 418.883C347.369 401.388 349.559 391.035 345.925 370.388C344.433 361.911 335.143 323.471 315.165 301.564C297.424 282.109 279.179 266.156 257.621 266.139Z" fill="#C6DDB0" fill-opacity="0.47"/>
<path d="M209.43 444.881C193.987 446.996 184.668 451.195 175.202 463.879C163.813 479.14 163.863 490.945 170.213 508.584C175.202 522.441 178.586 543.318 192.23 560.665C205.859 577.993 214.755 588.939 236.892 588.16C253.64 587.571 262.183 584.407 274.789 572.964C287.666 561.275 293.135 550.745 296.004 533.623C300.433 507.194 293.217 485.673 270.892 471.93C252.373 460.529 224.874 442.765 209.43 444.881Z" fill="#C6DDB0" fill-opacity="0.47"/>
<path d="M600.92 287.125C594.494 280.084 581.424 259.346 560.199 255.887C547.579 253.831 542.227 256.03 531.349 262.798C520.471 269.566 511.582 279.925 510.37 286.888C509.157 293.852 492.861 329.586 497.558 357.639C500.637 376.024 505.315 383.592 517.495 397.668C536.081 419.144 556.612 424.009 584.838 420.621C608.542 417.776 624.816 406.244 632.273 383.521C636.175 371.628 622.563 334.371 622.563 334.371C622.563 334.371 607.346 294.165 600.92 287.125Z" fill="#C6DDB0" fill-opacity="0.47"/>
<path d="M473.788 415.126C448.776 404.292 439.215 391.919 412.152 395.701C389.395 398.882 371.824 409.391 355.418 425.594C333.869 446.878 336.27 473.245 330.756 503.012C326.137 527.948 315.578 549.593 308.913 555.928C294.138 569.97 293.678 571.598 288.939 588.358L288.932 588.384C285.587 600.215 288.805 613.886 299.08 631.671C309.809 650.242 319.168 663.977 339.576 670.492C357.397 676.181 368.677 679.087 377.573 676.14C398.76 669.12 419.215 663.864 429.261 638.794C435.326 623.656 442.681 612.151 446.126 606.556C451.884 597.202 469.653 582.435 480.502 580.985C497.966 578.65 502.568 577.24 525.42 574.615C550.324 571.754 562.364 568.596 583.721 555.34C607.237 540.743 615.487 529.877 617.904 502.304C619.361 485.68 618.104 474.583 611.937 464.677C601.144 447.34 588.626 438.612 568.309 440.905C553.48 442.578 547.771 442.453 530.178 440.581C506.319 438.042 495.781 424.652 473.788 415.126Z" fill="#C6DDB0" fill-opacity="0.47"/>
<path d="M833.515 179.902L1189.86 10.3281C1203.58 3.80024 1219.52 3.86305 1233.18 10.4988L1581.84 179.797C1599.06 188.161 1610 205.627 1610 224.775V731C1610 758.614 1587.61 781 1560 781H855C827.386 781 805 758.614 805 731V225.05C805 205.76 816.097 188.191 833.515 179.902Z" fill="#FFFDFA"/>
<path d="M1276.11 104.983C1275.22 97.7861 1272.82 92.1724 1268.96 90.2124C1267.42 89.4284 1263.23 86.791 1258.31 88.0624C1251.92 89.7157 1246.09 95.4815 1246.09 95.4815C1246.09 95.4815 1238.85 103.494 1235.44 109.666C1232.49 115.001 1228.27 118.953 1229.7 124.843C1231.8 133.461 1237.55 136.595 1245.8 139.701C1250.54 141.479 1250.07 141.133 1255.07 140.282C1264.1 138.747 1268.41 131.929 1272.23 123.543C1275.31 116.799 1277.02 112.31 1276.11 104.983Z" fill="#C6DDB0" fill-opacity="0.47"/>
<path d="M1235.02 72.8853C1232.62 69.4571 1230.3 68.0606 1226.43 66.6494C1220.83 64.6107 1212.94 68.7589 1212.94 68.7589L1201.81 76.2229C1201.81 76.2229 1188.81 87.5411 1190.3 98.9457C1191.13 105.26 1189.77 109.77 1194.05 114.37C1198.52 119.172 1202.82 121.785 1209.29 121.462C1215.91 121.132 1219.02 119.8 1223.78 115.059C1225.73 113.112 1234.12 103.626 1236.23 94.3932C1238.09 86.1938 1238.95 78.5068 1235.02 72.8853Z" fill="#C6DDB0" fill-opacity="0.47"/>
<path d="M1179.32 93.1759C1175.94 89.5397 1173.14 87.8827 1168.08 87.7467C1162 87.5831 1158.91 89.7657 1155.44 94.6626C1152.71 98.5096 1147.85 103.228 1145.79 109.972C1143.73 116.709 1142.48 121.039 1146.73 126.666C1149.94 130.922 1152.33 132.567 1157.63 133.75C1163.05 134.957 1166.81 134.447 1171.83 132.048C1179.57 128.346 1183.9 122.51 1183.44 114.165C1183.05 107.244 1182.69 96.8121 1179.32 93.1759Z" fill="#C6DDB0" fill-opacity="0.47"/>
<path d="M1292.17 166.214C1292.85 163.245 1295.9 156.027 1292.94 149.86C1291.17 146.193 1289.62 145.203 1285.86 143.611C1282.1 142.02 1277.75 141.607 1275.71 142.571C1273.66 143.535 1261.3 145.855 1254.8 152.235C1250.54 156.416 1249.4 159.026 1247.93 164.788C1245.69 173.579 1248.16 179.823 1254.2 186.557C1259.27 192.212 1265.27 194.334 1272.59 192.101C1276.43 190.933 1283.72 180.538 1283.72 180.538C1283.72 180.538 1291.5 169.183 1292.17 166.214Z" fill="#C6DDB0" fill-opacity="0.47"/>
<path d="M1235.38 156.605C1233.65 148.095 1235.16 143.329 1229.22 136.971C1224.24 131.625 1218.27 128.977 1211.02 127.679C1201.5 125.975 1195.02 131.446 1186.2 135.48C1178.82 138.859 1171.21 140.085 1168.33 139.512C1161.95 138.242 1161.44 138.421 1156.17 140.267L1156.17 140.269C1152.45 141.572 1149.45 144.923 1146.66 150.87C1143.74 157.079 1141.85 162.043 1143.86 168.559C1145.62 174.249 1146.92 177.723 1149.31 179.5C1155.02 183.731 1160.14 188.097 1168.55 186.107C1173.63 184.906 1177.99 184.708 1180.09 184.578C1183.59 184.359 1190.71 186.276 1193.07 188.837C1196.87 192.96 1198.08 193.9 1202.94 199.373C1208.24 205.338 1211.26 207.895 1218.64 211.025C1226.76 214.472 1231.12 214.625 1238.8 210.187C1243.43 207.512 1246.11 205.145 1247.59 201.717C1250.17 195.717 1250.17 190.851 1245.86 185.977C1242.72 182.42 1241.71 180.909 1238.99 175.98C1235.3 169.295 1236.89 164.088 1235.38 156.605Z" fill="#C6DDB0" fill-opacity="0.47"/>
</svg>
