<svg xmlns:xlink="http://www.w3.org/1999/xlink" xmlns="http://www.w3.org/2000/svg" viewBox="0 0 440 175.84" width="440"  height="175.84" ><path d="M33.46,34.07A16.31,16.31,0,0,0,40,32.82a16.05,16.05,0,0,0,5.46-3.75,17.11,17.11,0,0,0,0-24,15.91,15.91,0,0,0-12-5,16.08,16.08,0,0,0-12,5,16.38,16.38,0,0,0-5,12,16.67,16.67,0,0,0,4.83,12A15.87,15.87,0,0,0,33.46,34.07Zm85.38,0a16,16,0,0,0,12-5,17.13,17.13,0,0,0,0-24,16.73,16.73,0,0,0-23.67-.33l-.33.33a16.42,16.42,0,0,0-5,12,16.63,16.63,0,0,0,4.83,12A16,16,0,0,0,118.84,34.07Zm261.56,90.6V114.34H440v10.33a14.19,14.19,0,0,0-9.27,4.17c-1.44,1.95-2.13,6-2.13,12.24v31.84H418.21a5.48,5.48,0,0,0-.15-1,8.53,8.53,0,0,1-.18-1.51,7.53,7.53,0,0,0-7.47-5.46c-2.55,0-5.6,1.35-9.5,3.07a87.85,87.85,0,0,1-14.75,5.36,82.38,82.38,0,0,1-20.34,2.16q-28.87,0-46.88-19.35a64.31,64.31,0,0,1-18-45c0-12.49,2.63-19.48,5.66-27.53.45-1.22.92-2.45,1.39-3.74a25.84,25.84,0,0,0,1.35-7.44A15.55,15.55,0,0,0,294.4,56.36h-1.06a18,18,0,0,0-8.43,2.32,12.25,12.25,0,0,0-6,6.36,30.33,30.33,0,0,0-1.68,11.37V119a118.82,118.82,0,0,1-1.74,22.36,38.69,38.69,0,0,1-8.26,16.69,44.82,44.82,0,0,1-18,12.87,64.73,64.73,0,0,1-25.6,4.89A68.61,68.61,0,0,1,197.25,171a45.26,45.26,0,0,1-17.85-12.18,39.85,39.85,0,0,1-8.41-16,86.39,86.39,0,0,1-2.19-20.58v-50c0-6-.93-10.08-3-12.27s-6.75-3.28-13.5-3.28-11.23.93-13.45,3-3.33,6.21-3.33,12.45v75c0,6.07,1,10.18,3.18,12.34s6.66,3.24,13.6,3.24v10.41h-66V162.78c6.57,0,11-1.11,13-3.3s3-6.28,3-12.28V116.59a4.09,4.09,0,0,0-.32-1.66,4.17,4.17,0,0,0-.93-1.41,4.22,4.22,0,0,0-1.41-1,4.31,4.31,0,0,0-1.66-.33H54.41a4.35,4.35,0,0,0-4.32,4.35v30.61c0,5.94.93,10,3,12.25s6.48,3.33,13.29,3.33v10.41H0v-10.8c6.69,0,11.13-.9,13.35-3s3.34-6.25,3.34-12.43v-75c0-6-.91-10.08-3-12.27S7.05,56.39.12,56.39V46H66.38V56.39q-9.9,0-13.14,3.25C51.08,61.8,50,65.94,50,71.94v24a4.35,4.35,0,0,0,4.32,4.35H97.83a4.31,4.31,0,0,0,1.66-.33,4.22,4.22,0,0,0,1.41-1,4.17,4.17,0,0,0,.93-1.41,4.13,4.13,0,0,0,.32-1.66v-24c0-5.85-1-10-3-12.18s-6.39-3.37-13.08-3.37V46H219.19V56.39h-2.13c-6.3,0-10.41,1.17-12.3,3.49a19.59,19.59,0,0,0-2.8,12v50.19a82.07,82.07,0,0,0,2.25,21.58,25,25,0,0,0,9.85,13.42,30,30,0,0,0,18.18,5.55,33.1,33.1,0,0,0,19.72-6,26.8,26.8,0,0,0,10.65-14.41A89.15,89.15,0,0,0,265,118.57V75.72q0-19.5-18.84-19.51V45.8H344.5a53.47,53.47,0,0,0,8.55-1,69,69,0,0,1,13.45-1.29,60.05,60.05,0,0,1,36.61,12,3,3,0,0,0,1.3.78,3,3,0,0,0,3.68-1.92,39.52,39.52,0,0,0,2.1-9.42h10l1.2,44.35h-10.2q-9.66-32.43-37.69-32.44a29.3,29.3,0,0,0-25.45,12.28q-8.76,12.27-8.76,41.23a139.66,139.66,0,0,0,2.58,30.94,29,29,0,0,0,9.93,16.42,30,30,0,0,0,19.2,5.83,30.7,30.7,0,0,0,17.22-4.5q6.84-4.5,6.85-17.71v-4.68Q395.06,125.6,380.4,124.67Z" fill="#101010"></path></svg>